<svg version="1.1" id="Layer_1" xmlns="http://www.w3.org/2000/svg" xmlns:xlink="http://www.w3.org/1999/xlink" x="0px" y="0px"
	 width="100%" viewBox="0 0 62 50" enable-background="new 0 0 62 50" xml:space="preserve">
<path fill="#FFFFFF" opacity="1.000000" stroke="none" 
	d="
M23.000000,51.000000 
	C20.629442,51.000000 18.258884,51.000000 15.738598,50.670647 
	C14.366515,47.139668 13.144161,43.938046 12.126522,41.272617 
	C10.252751,43.767704 9.355943,47.253311 12.000000,51.000000 
	C8.377266,51.000000 4.754533,51.000000 1.000000,51.000000 
	C1.000000,42.646130 1.000000,34.291729 1.309863,25.760471 
	C3.242841,23.062469 4.349760,19.867329 6.589818,18.151733 
	C12.365332,13.728436 18.382568,9.405293 26.483580,10.694250 
	C29.078653,11.107153 31.823139,10.516027 34.447880,10.823272 
	C38.047894,11.244677 39.856068,9.466799 41.014812,6.440474 
	C41.988995,3.896183 43.276192,1.968717 46.618641,2.883317 
	C47.197319,3.041661 48.195557,1.666718 49.000000,1.000000 
	C53.577919,1.000000 58.155842,1.000000 63.000000,1.000000 
	C63.000000,4.340135 63.000000,7.687112 62.695633,11.226364 
	C60.604923,13.541478 58.449211,15.457691 57.119003,17.835682 
	C55.134361,21.383614 53.731617,25.257051 51.762207,29.714167 
	C56.880417,39.329464 56.639957,41.850628 50.108894,45.533882 
	C48.446846,42.606922 46.781143,39.673519 45.115440,36.740120 
	C44.683159,36.869537 44.250874,36.998955 43.818592,37.128372 
	C43.029778,41.702129 37.644009,45.829350 43.000000,51.000000 
	C40.299988,51.000000 37.599972,51.000000 34.744469,50.660805 
	C29.704592,46.734310 31.433754,41.219593 29.655390,35.635647 
	C26.228886,39.329002 22.802380,43.022362 20.064280,45.973701 
	C21.531635,48.485989 22.265818,49.742992 23.000000,51.000000 
M23.197237,29.779228 
	C22.861967,29.647448 22.526695,29.515667 22.191425,29.383886 
	C22.434359,29.947485 22.677292,30.511086 22.994368,31.909117 
	C22.994368,33.804642 22.994368,35.700165 22.994368,37.919331 
	C25.566561,36.665470 27.698074,35.626427 30.191074,34.411171 
	C27.866869,32.939388 25.723333,31.582014 23.197237,29.779228 
M53.644615,21.842802 
	C54.658073,19.343615 55.671528,16.844427 56.696022,14.318016 
	C53.385735,13.160503 49.981308,11.970076 46.631821,10.798857 
	C47.890324,13.898894 48.949738,16.508524 49.347130,18.875103 
	C47.783096,16.982412 46.219063,15.089723 44.391708,12.878379 
	C44.391708,19.590395 44.391708,25.646648 44.391708,33.124687 
	C47.781364,28.649632 50.337185,25.275415 53.644615,21.842802 
M33.899162,16.663813 
	C32.122692,18.052706 30.346222,19.441599 28.569752,20.830492 
	C28.317768,20.534117 28.065783,20.237741 27.813797,19.941366 
	C29.808138,17.764288 31.802481,15.587208 33.938862,13.255074 
	C28.947001,13.255074 24.511673,13.255074 20.026485,13.255074 
	C20.476189,17.177977 20.896553,20.844959 21.333570,24.657200 
	C23.182064,23.306284 24.986387,21.987646 26.790710,20.669010 
	C27.071918,20.993410 27.353127,21.317812 27.634335,21.642214 
	C26.025335,23.383707 24.416336,25.125202 22.579342,27.113466 
	C25.795879,29.170677 28.713408,31.036650 31.621248,32.896427 
	C32.817856,27.425190 33.949978,22.248802 35.642849,16.879129 
	C35.683262,16.339497 35.723675,15.799864 35.764084,15.260232 
	C35.324535,15.575207 34.884991,15.890182 33.899162,16.663813 
M6.971022,24.701195 
	C6.552436,24.215622 6.133851,23.730049 5.736902,23.269575 
	C-0.102749,31.431526 5.814720,37.845505 8.201452,44.503117 
	C12.792063,38.310856 11.833226,32.183228 7.668386,26.224323 
	C7.479815,25.954523 7.250126,25.713461 6.971022,24.701195 
M41.574474,30.058170 
	C40.409077,25.741068 39.243679,21.423964 37.801773,16.082560 
	C36.107147,22.866390 34.742313,28.330015 33.326027,33.999607 
	C35.604092,33.999607 37.445225,33.824848 39.239433,34.040497 
	C41.942890,34.365433 42.300591,32.965816 41.574474,30.058170 
M14.007483,22.508532 
	C15.792413,23.350174 17.577341,24.191816 19.601267,25.146151 
	C18.927900,20.906626 18.334129,17.168221 17.718555,13.292562 
	C14.456385,15.343456 11.251744,17.358181 7.856598,19.492674 
	C9.919368,20.438774 11.661757,21.237930 14.007483,22.508532 
M17.001890,29.498465 
	C17.636061,28.799801 18.270231,28.101135 19.260216,27.010469 
	C15.704297,25.560392 12.506807,24.256479 8.256880,22.523390 
	C10.379113,26.722345 11.901903,29.735268 13.757312,33.406296 
	C14.850356,32.047680 15.673059,31.025089 17.001890,29.498465 
M50.618370,4.039273 
	C48.754997,5.127804 46.891624,6.216334 44.457348,7.638370 
	C48.288429,9.042848 51.442493,10.199130 54.596558,11.355412 
	C54.845383,11.011488 55.094204,10.667563 55.343025,10.323639 
	C54.023232,8.229800 52.703434,6.135962 50.618370,4.039273 
M34.007122,42.840843 
	C34.036575,43.002964 34.041420,43.175423 34.103718,43.323750 
	C34.148911,43.431358 34.270180,43.507008 34.357529,43.596909 
	C36.550694,41.224064 38.743855,38.851215 41.157074,36.240280 
	C38.000587,36.240280 35.577812,36.240280 32.607800,36.240280 
	C33.118732,38.407585 33.549374,40.234295 34.007122,42.840843 
M14.448023,37.091263 
	C14.718945,39.609783 14.989866,42.128304 15.292573,44.942303 
	C17.313080,43.167446 18.986219,41.697720 20.836670,40.072243 
	C18.846157,38.993275 17.039413,38.013920 14.448023,37.091263 
M20.588381,36.891453 
	C20.463411,34.698181 20.338444,32.504913 20.153477,29.258625 
	C17.829281,31.707129 16.455257,33.154640 14.731283,34.970818 
	C16.831905,35.807571 18.315634,36.398594 20.588381,36.891453 
z"/>
<path fill="#000404" opacity="1.000000" stroke="none" 
	d="
M48.531342,1.000000 
	C48.195557,1.666718 47.197319,3.041661 46.618641,2.883317 
	C43.276192,1.968717 41.988995,3.896183 41.014812,6.440474 
	C39.856068,9.466799 38.047894,11.244677 34.447880,10.823272 
	C31.823139,10.516027 29.078653,11.107153 26.483580,10.694250 
	C18.382568,9.405293 12.365332,13.728436 6.589818,18.151733 
	C4.349760,19.867329 3.242841,23.062469 1.309863,25.291805 
	C1.000000,17.048931 1.000000,9.097861 1.000000,1.000000 
	C16.687298,1.000000 32.374992,1.000000 48.531342,1.000000 
z"/>
<path fill="#000000" opacity="1.000000" stroke="none" 
	d="
M43.469044,51.000000 
	C37.644009,45.829350 43.029778,41.702129 43.818592,37.128372 
	C44.250874,36.998955 44.683159,36.869537 45.115440,36.740120 
	C46.781143,39.673519 48.446846,42.606922 50.108894,45.533882 
	C56.639957,41.850628 56.880417,39.329464 51.762207,29.714167 
	C53.731617,25.257051 55.134361,21.383614 57.119003,17.835682 
	C58.449211,15.457691 60.604923,13.541478 62.695633,11.709320 
	C63.000000,24.902647 63.000000,37.805294 63.000000,51.000000 
	C56.648998,51.000000 50.293541,51.000000 43.469044,51.000000 
z"/>
<path fill="#000000" opacity="1.000000" stroke="none" 
	d="
M23.458069,51.000000 
	C22.265818,49.742992 21.531635,48.485989 20.064280,45.973701 
	C22.802380,43.022362 26.228886,39.329002 29.655390,35.635647 
	C31.433754,41.219593 29.704592,46.734310 34.294491,50.660805 
	C30.638712,51.000000 27.277426,51.000000 23.458069,51.000000 
z"/>
<path fill="#000000" opacity="1.000000" stroke="none" 
	d="
M12.375000,51.000000 
	C9.355943,47.253311 10.252751,43.767704 12.126522,41.272617 
	C13.144161,43.938046 14.366515,47.139668 15.294435,50.670647 
	C14.250000,51.000000 13.500000,51.000000 12.375000,51.000000 
z"/>
<path fill="#000000" opacity="1.000000" stroke="none" 
	d="
M35.082100,17.072412 
	C33.949978,22.248802 32.817856,27.425190 31.621248,32.896427 
	C28.713408,31.036650 25.795879,29.170677 22.579342,27.113466 
	C24.416336,25.125202 26.025335,23.383707 27.634335,21.642214 
	C27.353127,21.317812 27.071918,20.993410 26.790710,20.669010 
	C24.986387,21.987646 23.182064,23.306284 21.333570,24.657200 
	C20.896553,20.844959 20.476189,17.177977 20.026485,13.255074 
	C24.511673,13.255074 28.947001,13.255074 33.938862,13.255074 
	C31.802481,15.587208 29.808138,17.764288 27.813797,19.941366 
	C28.065783,20.237741 28.317768,20.534117 28.569752,20.830492 
	C30.346222,19.441599 32.122692,18.052706 34.320709,16.659195 
	C34.855537,16.793856 34.968819,16.933134 35.082100,17.072412 
z"/>
<path fill="#000000" opacity="1.000000" stroke="none" 
	d="
M7.005305,25.080105 
	C7.250126,25.713461 7.479815,25.954523 7.668386,26.224323 
	C11.833226,32.183228 12.792063,38.310856 8.201452,44.503117 
	C5.814720,37.845505 -0.102749,31.431526 5.736902,23.269575 
	C6.133851,23.730049 6.552436,24.215622 7.005305,25.080105 
z"/>
<path fill="#000000" opacity="1.000000" stroke="none" 
	d="
M52.893005,21.901199 
	C50.337185,25.275415 47.781364,28.649632 44.391708,33.124687 
	C44.391708,25.646648 44.391708,19.590395 44.391708,12.878379 
	C46.219063,15.089723 47.783096,16.982412 49.665379,18.954477 
	C49.983627,19.033852 49.921757,18.971163 49.960243,19.359287 
	C51.025234,20.507887 52.051735,21.268360 53.030334,21.999237 
	C52.982433,21.969641 52.893005,21.901201 52.893005,21.901199 
z"/>
<path fill="#000000" opacity="1.000000" stroke="none" 
	d="
M41.772118,30.450886 
	C42.300591,32.965816 41.942890,34.365433 39.239433,34.040497 
	C37.445225,33.824848 35.604092,33.999607 33.326027,33.999607 
	C34.742313,28.330015 36.107147,22.866390 37.801773,16.082560 
	C39.243679,21.423964 40.409077,25.741068 41.772118,30.450886 
z"/>
<path fill="#000000" opacity="1.000000" stroke="none" 
	d="
M13.705814,22.272808 
	C11.661757,21.237930 9.919368,20.438774 7.856598,19.492674 
	C11.251744,17.358181 14.456385,15.343456 17.718555,13.292562 
	C18.334129,17.168221 18.927900,20.906626 19.601267,25.146151 
	C17.577341,24.191816 15.792413,23.350174 13.705814,22.272808 
z"/>
<path fill="#000000" opacity="1.000000" stroke="none" 
	d="
M49.996391,19.076002 
	C48.949738,16.508524 47.890324,13.898894 46.631821,10.798857 
	C49.981308,11.970076 53.385735,13.160503 56.696022,14.318016 
	C55.671528,16.844427 54.658073,19.343615 53.268810,21.872002 
	C52.893005,21.901201 52.982433,21.969641 52.991863,21.611355 
	C51.974781,20.492435 50.948269,19.731798 49.921757,18.971163 
	C49.921757,18.971163 49.983627,19.033852 49.996391,19.076002 
z"/>
<path fill="#000000" opacity="1.000000" stroke="none" 
	d="
M16.748825,29.750483 
	C15.673059,31.025089 14.850356,32.047680 13.757312,33.406296 
	C11.901903,29.735268 10.379113,26.722345 8.256880,22.523390 
	C12.506807,24.256479 15.704297,25.560392 19.260216,27.010469 
	C18.270231,28.101135 17.636061,28.799801 16.748825,29.750483 
z"/>
<path fill="#000000" opacity="1.000000" stroke="none" 
	d="
M51.001007,4.040698 
	C52.703434,6.135962 54.023232,8.229800 55.343025,10.323639 
	C55.094204,10.667563 54.845383,11.011488 54.596558,11.355412 
	C51.442493,10.199130 48.288429,9.042848 44.457348,7.638370 
	C46.891624,6.216334 48.754997,5.127804 51.001007,4.040698 
z"/>
<path fill="#000000" opacity="1.000000" stroke="none" 
	d="
M33.993568,42.450928 
	C33.549374,40.234295 33.118732,38.407585 32.607800,36.240280 
	C35.577812,36.240280 38.000587,36.240280 41.157074,36.240280 
	C38.743855,38.851215 36.550694,41.224064 34.357529,43.596909 
	C34.270180,43.507008 34.148911,43.431358 34.103718,43.323750 
	C34.041420,43.175423 34.036575,43.002964 33.993568,42.450928 
z"/>
<path fill="#000000" opacity="1.000000" stroke="none" 
	d="
M23.579800,30.224640 
	C25.723333,31.582014 27.866869,32.939388 30.191074,34.411171 
	C27.698074,35.626427 25.566561,36.665470 22.994368,37.919331 
	C22.994368,35.700165 22.994368,33.804642 23.131748,31.286808 
	C23.372686,30.517878 23.476244,30.371260 23.579800,30.224640 
z"/>
<path fill="#000000" opacity="1.000000" stroke="none" 
	d="
M14.840345,37.062912 
	C17.039413,38.013920 18.846157,38.993275 20.836670,40.072243 
	C18.986219,41.697720 17.313080,43.167446 15.292573,44.942303 
	C14.989866,42.128304 14.718945,39.609783 14.840345,37.062912 
z"/>
<path fill="#000505" opacity="1.000000" stroke="none" 
	d="
M20.193871,36.940536 
	C18.315634,36.398594 16.831905,35.807571 14.731283,34.970818 
	C16.455257,33.154640 17.829281,31.707129 20.153477,29.258625 
	C20.338444,32.504913 20.463411,34.698181 20.193871,36.940536 
z"/>
<path fill="#000000" opacity="1.000000" stroke="none" 
	d="
M23.094677,30.869591 
	C22.677292,30.511086 22.434359,29.947485 22.191425,29.383886 
	C22.526695,29.515667 22.861967,29.647448 23.388519,30.001934 
	C23.476244,30.371260 23.372686,30.517878 23.094677,30.869591 
z"/>
<path fill="#000000" opacity="1.000000" stroke="none" 
	d="
M34.593849,16.429867 
	C34.884991,15.890182 35.324535,15.575207 35.764084,15.260231 
	C35.723675,15.799864 35.683262,16.339497 35.362473,16.975771 
	C34.968819,16.933134 34.855537,16.793856 34.593849,16.429867 
z"/>
<path fill="#FFFFFF" opacity="1.000000" stroke="none" 
	d="
M49.960243,19.359287 
	C50.948269,19.731798 51.974781,20.492435 53.039764,21.640953 
	C52.051735,21.268360 51.025234,20.507887 49.960243,19.359287 
z"/>
</svg>