<svg version="1.1" id="Layer_1" xmlns="http://www.w3.org/2000/svg" xmlns:xlink="http://www.w3.org/1999/xlink" x="0px" y="0px"
	 width="100%" viewBox="0 0 62 50" enable-background="new 0 0 62 50" xml:space="preserve">
<path fill="#0095B5" opacity="1.000000" stroke="none" 
	d="
M23.000000,51.000000 
	C20.629442,51.000000 18.258884,51.000000 15.724087,50.683369 
	C14.378260,47.356750 13.196672,44.346767 12.130086,41.629734 
	C9.863064,44.240871 9.879224,47.556896 12.000000,51.000000 
	C8.377266,51.000000 4.754533,51.000000 1.000000,51.000000 
	C1.000000,42.646130 1.000000,34.291729 1.261099,25.804905 
	C3.414724,22.910177 4.871209,19.669380 7.280353,17.473999 
	C14.950861,10.484097 24.412832,8.800282 34.305714,10.333481 
	C38.147232,10.928837 39.751587,9.555159 40.973564,6.593901 
	C42.027180,4.040633 43.200020,1.976870 46.633526,2.860576 
	C47.223637,3.012457 48.201340,1.658405 49.000000,1.000000 
	C53.577919,1.000000 58.155842,1.000000 63.000000,1.000000 
	C63.000000,4.340135 63.000000,7.687112 62.736782,11.197128 
	C59.103123,13.171657 57.378944,16.052475 56.583313,19.751333 
	C56.183628,21.609463 55.592426,23.894106 54.265560,24.993071 
	C50.940434,27.747074 51.786064,30.148214 53.607944,33.246353 
	C56.377495,37.956013 55.901672,43.576035 50.330936,45.386341 
	C48.467278,42.446342 46.734886,39.713432 45.002499,36.980518 
	C42.710125,42.007572 37.809357,46.127926 43.000000,51.000000 
	C40.299988,51.000000 37.599972,51.000000 34.715553,50.670555 
	C32.886425,45.925594 31.241697,41.510075 29.239603,36.135151 
	C26.150682,39.416168 22.831953,42.941284 20.140079,45.800564 
	C21.561575,48.384895 22.280787,49.692448 23.000000,51.000000 
M23.333836,29.913942 
	C22.965124,29.797117 22.596413,29.680292 22.227701,29.563469 
	C22.458635,30.066156 22.689568,30.568844 22.987141,31.885395 
	C22.987141,33.685917 22.987141,35.486443 22.987141,37.842197 
	C25.492947,36.642365 27.593876,35.636395 30.179005,34.398582 
	C27.758205,32.881401 25.732603,31.611904 23.333836,29.913942 
M53.610973,21.740774 
	C54.616657,19.286346 55.622345,16.831919 56.644875,14.336383 
	C53.146870,13.091287 49.902443,11.936452 46.148335,10.600197 
	C47.748482,13.580422 48.959454,15.835816 49.635429,18.714748 
	C48.013409,17.002789 46.391384,15.290831 44.283424,13.065989 
	C44.283424,19.625425 44.283424,25.429955 44.283424,31.234484 
	C44.614918,31.427748 44.946407,31.621012 45.277901,31.814276 
	C47.821445,28.515249 50.364990,25.216221 53.610973,21.740774 
M33.796356,16.778774 
	C32.247425,17.996906 30.698498,19.215038 29.149569,20.433170 
	C28.896528,20.138245 28.643488,19.843317 28.390448,19.548391 
	C30.097399,17.546444 31.804350,15.544498 33.730999,13.284885 
	C28.794714,13.284885 24.519787,13.284885 20.027975,13.284885 
	C20.511690,17.185051 20.956064,20.768034 21.408367,24.414927 
	C23.529182,23.016941 25.292955,21.854309 27.056728,20.691679 
	C27.252552,20.954887 27.448376,21.218098 27.644199,21.481306 
	C26.066162,23.321249 24.488127,25.161190 22.729879,27.211252 
	C25.864969,29.200733 28.684338,30.989861 31.608980,32.845795 
	C32.841915,27.248003 33.962814,22.158880 35.604332,16.830578 
	C35.649647,16.389900 35.694958,15.949222 35.740273,15.508546 
	C35.265553,15.778725 34.790833,16.048903 33.796356,16.778774 
M3.062104,28.965702 
	C4.555077,34.164570 6.048050,39.363434 7.614419,44.817883 
	C14.565970,36.284451 9.984273,29.888788 5.669188,23.263096 
	C4.805705,25.084639 4.062948,26.651503 3.062104,28.965702 
M40.101173,25.300253 
	C39.458832,22.623856 38.816486,19.947456 37.860886,15.965830 
	C36.118103,22.911060 34.766418,28.297710 33.395931,33.759293 
	C36.424828,33.759293 39.017010,33.759293 42.189945,33.759293 
	C41.584522,30.957653 41.051579,28.491402 40.101173,25.300253 
M13.999539,22.495693 
	C15.690007,23.305504 17.380476,24.115314 19.519133,25.139830 
	C18.866747,20.942902 18.295553,17.268305 17.692598,13.389378 
	C14.241179,15.515923 11.245216,17.361845 7.921849,19.409491 
	C9.989411,20.419405 11.690360,21.250244 13.999539,22.495693 
M11.072309,28.310442 
	C11.850579,29.745838 12.628850,31.181232 13.309665,32.436886 
	C15.111327,30.837242 16.958342,29.197329 19.329084,27.092415 
	C15.731740,25.594690 12.601662,24.291508 8.343948,22.518845 
	C9.614631,25.025118 10.265708,26.309296 11.072309,28.310442 
M52.526974,5.071523 
	C50.063179,5.524133 47.599380,5.976743 45.135586,6.429353 
	C45.187042,6.919862 45.238503,7.410371 45.289963,7.900879 
	C48.337093,9.036916 51.384220,10.172953 55.552380,11.726933 
	C54.295746,8.845407 53.609951,7.272840 52.526974,5.071523 
M33.843693,36.135136 
	C33.843693,38.563580 33.843693,40.992027 33.843693,43.420471 
	C34.270779,43.487591 34.697865,43.554714 35.124950,43.621834 
	C36.933159,41.249866 38.741367,38.877895 40.913586,36.028427 
	C38.308697,36.028427 36.489735,36.028427 33.843693,36.135136 
M18.444304,38.870422 
	C17.130085,38.236099 15.815866,37.601776 14.170407,36.807579 
	C14.680654,39.948586 15.045838,42.196617 15.449938,44.684200 
	C17.215382,43.230610 18.655445,42.145863 19.921642,40.886330 
	C20.098068,40.710831 19.418715,39.675026 18.444304,38.870422 
M20.992428,34.576836 
	C20.586594,33.187340 20.180758,31.797844 19.778887,30.421921 
	C17.905136,31.901237 16.411079,33.080784 14.917025,34.260334 
	C15.100181,34.819508 15.283336,35.378677 15.466491,35.937851 
	C17.304276,35.736851 19.142059,35.535847 20.992428,34.576836 
z"/>
<path fill="#000000" opacity="1.000000" stroke="none" 
	d="
M48.531342,1.000000 
	C48.201340,1.658405 47.223637,3.012457 46.633526,2.860576 
	C43.200020,1.976870 42.027180,4.040633 40.973564,6.593901 
	C39.751587,9.555159 38.147232,10.928837 34.305714,10.333481 
	C24.412832,8.800282 14.950861,10.484097 7.280353,17.473999 
	C4.871209,19.669380 3.414724,22.910177 1.261099,25.336239 
	C1.000000,17.048931 1.000000,9.097861 1.000000,1.000000 
	C16.687298,1.000000 32.374992,1.000000 48.531342,1.000000 
z"/>
<path fill="#000000" opacity="1.000000" stroke="none" 
	d="
M43.469044,51.000000 
	C37.809357,46.127926 42.710125,42.007572 45.002499,36.980518 
	C46.734886,39.713432 48.467278,42.446342 50.330936,45.386341 
	C55.901672,43.576035 56.377495,37.956013 53.607944,33.246353 
	C51.786064,30.148214 50.940434,27.747074 54.265560,24.993071 
	C55.592426,23.894106 56.183628,21.609463 56.583313,19.751333 
	C57.378944,16.052475 59.103123,13.171657 62.736782,11.680084 
	C63.000000,24.902647 63.000000,37.805294 63.000000,51.000000 
	C56.648998,51.000000 50.293541,51.000000 43.469044,51.000000 
z"/>
<path fill="#000000" opacity="1.000000" stroke="none" 
	d="
M23.458069,51.000000 
	C22.280787,49.692448 21.561575,48.384895 20.140079,45.800564 
	C22.831953,42.941284 26.150682,39.416168 29.239603,36.135151 
	C31.241697,41.510075 32.886425,45.925594 34.265575,50.670555 
	C30.638712,51.000000 27.277426,51.000000 23.458069,51.000000 
z"/>
<path fill="#000000" opacity="1.000000" stroke="none" 
	d="
M12.375000,51.000000 
	C9.879224,47.556896 9.863064,44.240871 12.130086,41.629734 
	C13.196672,44.346767 14.378260,47.356750 15.279923,50.683369 
	C14.250000,51.000000 13.500000,51.000000 12.375000,51.000000 
z"/>
<path fill="#000000" opacity="1.000000" stroke="none" 
	d="
M35.083710,17.069757 
	C33.962814,22.158880 32.841915,27.248003 31.608980,32.845795 
	C28.684338,30.989861 25.864969,29.200733 22.729879,27.211252 
	C24.488127,25.161190 26.066162,23.321249 27.644199,21.481306 
	C27.448376,21.218098 27.252552,20.954887 27.056728,20.691679 
	C25.292955,21.854309 23.529182,23.016941 21.408367,24.414927 
	C20.956064,20.768034 20.511690,17.185051 20.027975,13.284885 
	C24.519787,13.284885 28.794714,13.284885 33.730999,13.284885 
	C31.804350,15.544498 30.097399,17.546444 28.390448,19.548391 
	C28.643488,19.843317 28.896528,20.138245 29.149569,20.433170 
	C30.698498,19.215038 32.247425,17.996906 34.247658,16.737085 
	C34.827206,16.820183 34.955456,16.944969 35.083710,17.069757 
z"/>
<path fill="#000000" opacity="1.000000" stroke="none" 
	d="
M3.191148,28.592033 
	C4.062948,26.651503 4.805705,25.084639 5.669188,23.263096 
	C9.984273,29.888788 14.565970,36.284451 7.614419,44.817883 
	C6.048050,39.363434 4.555077,34.164570 3.191148,28.592033 
z"/>
<path fill="#000000" opacity="1.000000" stroke="none" 
	d="
M52.908531,21.917194 
	C50.364990,25.216221 47.821445,28.515249 45.277901,31.814276 
	C44.946407,31.621012 44.614918,31.427748 44.283424,31.234484 
	C44.283424,25.429955 44.283424,19.625425 44.283424,13.065989 
	C46.391384,15.290831 48.013409,17.002789 49.854980,18.358025 
	C50.074535,18.001301 49.981731,17.908213 49.661438,18.214079 
	C50.587456,19.689905 51.833767,20.859867 53.037125,22.001778 
	C52.994167,21.973724 52.908535,21.917196 52.908531,21.917194 
z"/>
<path fill="#000000" opacity="1.000000" stroke="none" 
	d="
M40.309906,25.662701 
	C41.051579,28.491402 41.584522,30.957653 42.189945,33.759293 
	C39.017010,33.759293 36.424828,33.759293 33.395931,33.759293 
	C34.766418,28.297710 36.118103,22.911060 37.860886,15.965830 
	C38.816486,19.947456 39.458832,22.623856 40.309906,25.662701 
z"/>
<path fill="#000000" opacity="1.000000" stroke="none" 
	d="
M13.695424,22.288387 
	C11.690360,21.250244 9.989411,20.419405 7.921849,19.409491 
	C11.245216,17.361845 14.241179,15.515923 17.692598,13.389378 
	C18.295553,17.268305 18.866747,20.942902 19.519133,25.139830 
	C17.380476,24.115314 15.690007,23.305504 13.695424,22.288387 
z"/>
<path fill="#000000" opacity="1.000000" stroke="none" 
	d="
M50.122482,18.046255 
	C48.959454,15.835816 47.748482,13.580422 46.148335,10.600197 
	C49.902443,11.936452 53.146870,13.091287 56.644875,14.336383 
	C55.622345,16.831919 54.616657,19.286346 53.259754,21.828985 
	C52.908535,21.917196 52.994167,21.973724 52.997589,21.660522 
	C51.994587,20.200953 50.988159,19.054583 49.981731,17.908213 
	C49.981731,17.908213 50.074535,18.001301 50.122482,18.046255 
z"/>
<path fill="#000000" opacity="1.000000" stroke="none" 
	d="
M10.994547,27.951958 
	C10.265708,26.309296 9.614631,25.025118 8.343948,22.518845 
	C12.601662,24.291508 15.731740,25.594690 19.329084,27.092415 
	C16.958342,29.197329 15.111327,30.837242 13.309665,32.436886 
	C12.628850,31.181232 11.850579,29.745838 10.994547,27.951958 
z"/>
<path fill="#000000" opacity="1.000000" stroke="none" 
	d="
M52.725563,5.385898 
	C53.609951,7.272840 54.295746,8.845407 55.552380,11.726933 
	C51.384220,10.172953 48.337093,9.036916 45.289963,7.900879 
	C45.238503,7.410371 45.187042,6.919862 45.135586,6.429353 
	C47.599380,5.976743 50.063179,5.524133 52.725563,5.385898 
z"/>
<path fill="#000000" opacity="1.000000" stroke="none" 
	d="
M34.257233,36.081779 
	C36.489735,36.028427 38.308697,36.028427 40.913586,36.028427 
	C38.741367,38.877895 36.933159,41.249866 35.124950,43.621834 
	C34.697865,43.554714 34.270779,43.487591 33.843693,43.420471 
	C33.843693,40.992027 33.843693,38.563580 34.257233,36.081779 
z"/>
<path fill="#000000" opacity="1.000000" stroke="none" 
	d="
M23.707003,30.342405 
	C25.732603,31.611904 27.758205,32.881401 30.179005,34.398582 
	C27.593876,35.636395 25.492947,36.642365 22.987141,37.842197 
	C22.987141,35.486443 22.987141,33.685917 23.150852,31.296619 
	C23.445375,30.586029 23.576189,30.464216 23.707003,30.342405 
z"/>
<path fill="#000000" opacity="1.000000" stroke="none" 
	d="
M18.789909,38.953949 
	C19.418715,39.675026 20.098068,40.710831 19.921642,40.886330 
	C18.655445,42.145863 17.215382,43.230610 15.449938,44.684200 
	C15.045838,42.196617 14.680654,39.948586 14.170407,36.807579 
	C15.815866,37.601776 17.130085,38.236099 18.789909,38.953949 
z"/>
<path fill="#000000" opacity="1.000000" stroke="none" 
	d="
M20.986137,34.955841 
	C19.142059,35.535847 17.304276,35.736851 15.466491,35.937851 
	C15.283336,35.378677 15.100181,34.819508 14.917025,34.260334 
	C16.411079,33.080784 17.905136,31.901237 19.778887,30.421921 
	C20.180758,31.797844 20.586594,33.187340 20.986137,34.955841 
z"/>
<path fill="#000000" opacity="1.000000" stroke="none" 
	d="
M23.117531,30.889687 
	C22.689568,30.568844 22.458635,30.066156 22.227701,29.563469 
	C22.596413,29.680292 22.965124,29.797117 23.520420,30.128174 
	C23.576189,30.464216 23.445375,30.586029 23.117531,30.889687 
z"/>
<path fill="#000000" opacity="1.000000" stroke="none" 
	d="
M34.507530,16.507240 
	C34.790833,16.048903 35.265553,15.778725 35.740273,15.508545 
	C35.694958,15.949222 35.649647,16.389900 35.344021,16.950169 
	C34.955456,16.944969 34.827206,16.820183 34.507530,16.507240 
z"/>
<path fill="#0095B5" opacity="1.000000" stroke="none" 
	d="
M49.661438,18.214079 
	C50.988159,19.054583 51.994587,20.200953 53.040546,21.688576 
	C51.833767,20.859867 50.587456,19.689905 49.661438,18.214079 
z"/>
</svg>